#!OML:ASF H:\IndianDance\Patient Classification 1\Patient 1\Session 1\dancer.ASF
:FULLY-SPECIFIED
:DEGREES
2528
root -1.80694 14.5355 -0.387493 1466.52 -428.519 -21.4596
lowerback 6.39389 2.41595 2.06453
upperback -7.63822 3.54518 1.28018
thorax -11.7785 1.54772 -0.342174
lowerneck -15.3869 -5.97869 -0.788634
upperneck 17.1222 -8.08674 0.000837815
head 7.85103 -3.92602 -0.779281
rclavicle 1.36664e-014 1.74931e-014
rhumerus -14.4219 29.0537 -60.8497
rradius 117.438
rwrist -97.3177
rhand -15.9419 -9.8832
rfingers 7.12502
rthumb 10.2562 -39.6132
lclavicle 1.36664e-014 1.74931e-014
lhumerus 17.5907 -37.5992 25.4907
lradius 114.815
lwrist 68.3429
lhand -1.56456 19.9728
lfingers 7.12502
lthumb 24.091 -311.52
rfemur -27.0175 -31.8388 25.8516
rtibia 57.6511
rfoot -21.588 -16.0035
rtoes 0.215881
lfemur -47.5204 37.1334 -19.3523
ltibia 72.5097
lfoot -15.3472 11.4894
ltoes 1.53995
2529
root -1.8423 14.5937 -0.313038 1467.34 -428.148 -22.1469
lowerback 6.07795 2.35109 2.2656
upperback -7.78936 3.48364 1.45571
thorax -11.7596 1.50711 -0.242625
lowerneck -15.3864 -6.01511 -0.751189
upperneck 17.0622 -8.16548 0.107247
head 7.83452 -3.95126 -0.758063
rclavicle 1.31198e-014 5.56597e-015
rhumerus -15.7367 27.0348 -58.671
rradius 116.799
rwrist -95.4876
rhand -15.9176 -10.7808
rfingers 7.12502
rthumb 10.2796 -40.5096
lclavicle 1.31198e-014 5.56597e-015
lhumerus 15.8398 -36.5676 23.5315
lradius 112.763
lwrist 65.4299
lhand -0.87602 19.0593
lfingers 7.12502
lthumb 24.751 -312.522
rfemur -26.4008 -32.1207 25.6071
rtibia 56.9702
rfoot -20.5734 -14.7552
rtoes -1.50798
lfemur -47.2228 37.2077 -19.4735
ltibia 70.2757
lfoot -16.3654 13.458
ltoes 4.51127
2530
root -1.87845 14.6506 -0.233612 1468.01 -427.788 -22.6885
lowerback 5.76668 2.28203 2.40544
upperback -7.94908 3.40848 1.63734
thorax -11.7578 1.46495 -0.101023
lowerneck -15.4183 -6.0548 -0.724975
upperneck 17.0745 -8.2429 0.185161
head 7.8469 -3.97857 -0.747055
rclavicle 8.93537e-014 2.98177e-014
rhumerus -17.0013 25.1621 -56.1896
rradius 115.699
rwrist -93.1026
rhand -15.9528 -11.2721
rfingers 7.12502
rthumb 10.2456 -41.0026
lclavicle 8.93537e-014 2.98177e-014
lhumerus 14.1365 -35.7871 21.4785
lradius 110.279
lwrist 62.7113
lhand -0.464076 18.183
lfingers 7.12502
lthumb 25.1458 -313.453
rfemur -25.8832 -32.4855 25.2626
rtibia 56.4989
rfoot -19.4375 -13.3927
rtoes -3.18195
lfemur -46.7776 37.2024 -19.6569
ltibia 67.7025
lfoot -17.449 15.4545
ltoes 7.62036
2531
root -1.91454 14.7046 -0.14976 1468.53 -427.428 -23.0846
lowerback 5.4423 2.20326 2.4908
upperback -8.11018 3.31265 1.82561
thorax -11.7532 1.41781 0.0813054
lowerneck -15.4605 -6.09001 -0.693946
upperneck 17.15 -8.31016 0.223662
head 7.88004 -4.00405 -0.75036
rclavicle 1.1778e-014 1.43125e-014
rhumerus -18.1681 23.5273 -53.4376
rradius 114.045
rwrist -90.0184
rhand -16.0839 -11.3352
rfingers 7.12502
rthumb 10.1193 -41.0719
lclavicle 1.1778e-014 1.43125e-014
lhumerus 12.5232 -35.2973 19.3592
lradius 107.328
lwrist 60.0701
lhand -0.451392 17.3266
lfingers 7.12502
lthumb 25.1579 -314.311
rfemur -25.5207 -32.9824 24.8278
rtibia 56.3215
rfoot -18.1473 -11.9152
rtoes -4.61403
lfemur -46.1887 37.1195 -19.8842
ltibia 64.9623
lfoot -18.584 17.2669
ltoes 11.1052
2532
root -1.94935 14.754 -0.0617899 1468.89 -427.061 -23.3393
lowerback 5.11081 2.11781 2.53777
upperback -8.25875 3.2028 2.02198
thorax -11.7324 1.36805 0.295601
lowerneck -15.5487 -6.12077 -0.662508
upperneck 17.294 -8.36414 0.214294
head 7.94178 -4.02673 -0.771087
rclavicle 1.72446e-014 -1.15295e-014
rhumerus -19.1546 22.1996 -50.4331
rradius 111.736
rwrist -86.1006
rhand -16.3416 -10.8615
rfingers 7.12502
rthumb 9.8706 -40.6102
lclavicle 1.72446e-014 -1.15295e-014
lhumerus 11.0629 -35.1081 17.2132
lradius 103.875
lwrist 57.3283
lhand -0.773432 16.5225
lfingers 7.12502
lthumb 24.8494 -315.072
rfemur -25.3626 -33.6459 24.3054
rtibia 56.5096
rfoot -16.6645 -10.3087
rtoes -5.62558
lfemur -45.4725 36.9389 -20.1265
ltibia 62.2371
lfoot -19.7125 18.7534
ltoes 14.8122
